<svg id="SvgjsSvg1001" width="349.5" height="130" xmlns="http://www.w3.org/2000/svg" version="1.1" xmlns:xlink="http://www.w3.org/1999/xlink" xmlns:svgjs="http://svgjs.com/svgjs"><defs id="SvgjsDefs1002"><pattern id="SvgjsPattern1010" x="0" y="0" width="92.5" height="64" patternUnits="userSpaceOnUse"><image id="SvgjsImage1011" xlink:href="https://www.processon.com/public/static/assets/images/designer/network/notebook.svg" width="92.5" height="64" preserveAspectRatio="none" crossOrigin="anonymous" x="0" y="0"></image></pattern><pattern id="SvgjsPattern1016" x="0" y="0" width="36" height="80" patternUnits="userSpaceOnUse"><image id="SvgjsImage1017" xlink:href="https://www.processon.com/public/static/assets/images/designer/network/server.svg" width="36" height="80" preserveAspectRatio="none" crossOrigin="anonymous" x="0" y="0"></image></pattern><marker id="SvgjsMarker1022" markerWidth="14" markerHeight="10" refX="10" refY="5" viewBox="0 0 14 10" orient="auto" markerUnits="userSpaceOnUse" stroke-dasharray="0,0"><path id="SvgjsPath1023" d="M0,0 L14,5 L0,10 L0,0" fill="#323232" stroke="#323232" stroke-width="1"></path></marker><marker id="SvgjsMarker1026" markerWidth="14" markerHeight="10" refX="10" refY="5" viewBox="0 0 14 10" orient="auto" markerUnits="userSpaceOnUse" stroke-dasharray="0,0"><path id="SvgjsPath1027" d="M0,0 L14,5 L0,10 L0,0" fill="#323232" stroke="#323232" stroke-width="1"></path></marker></defs><g id="SvgjsG1008" transform="translate(25,33)"><path id="SvgjsPath1009" d="M 0 0L 92.5 0L 92.5 64L 0 64Z" stroke="none" fill="url(#SvgjsPattern1010)"></path><g id="SvgjsG1012"><text id="SvgjsText1013" font-family="微软雅黑" text-anchor="middle" font-size="13px" width="133px" fill="#323232" font-weight="400" align="middle" lineHeight="125%" anchor="middle" family="微软雅黑" size="13px" weight="400" font-style="" opacity="1" y="68.375" transform="rotate(0)"></text></g></g><g id="SvgjsG1014" transform="translate(288.5,25)"><path id="SvgjsPath1015" d="M 0 0L 36 0L 36 80L 0 80Z" stroke="none" fill="url(#SvgjsPattern1016)"></path><g id="SvgjsG1018"><text id="SvgjsText1019" font-family="微软雅黑" text-anchor="middle" font-size="13px" width="76px" fill="#323232" font-weight="400" align="middle" lineHeight="125%" anchor="middle" family="微软雅黑" size="13px" weight="400" font-style="" opacity="1" y="84.375" transform="rotate(0)"></text></g></g><g id="SvgjsG1020"><path id="SvgjsPath1021" d="M117.5 43L203 43L203 43L285.9 43" stroke="#323232" stroke-width="2" fill="none" marker-end="url(#SvgjsMarker1022)"></path></g><g id="SvgjsG1024"><path id="SvgjsPath1025" d="M288.5 77L203 77L203 77L120.10000000000002 77" stroke="#323232" stroke-width="2" fill="none" marker-end="url(#SvgjsMarker1026)"></path></g></svg>