<?xml version="1.0" standalone="no"?><?xml-stylesheet type="text/css" href="https://www.processon.com/themes/default/mind/icons/icons.css" ?><!DOCTYPE svg PUBLIC "-//W3C//DTD SVG 1.1//EN" "http://www.w3.org/Graphics/SVG/1.1/DTD/svg11.dtd"><svg xmlns="http://www.w3.org/2000/svg" xlink="http://www.w3.org/1999/xlink" id="mind-svg-con" version="1.1" width="750.8828125px" height="158px" style="position: absolute; left: 0px; top: 0px; width: 750.883px; height: 158px; background: rgb(10, 15, 50); z-index: 999;"><defs></defs><g id="svgbackgroundid"><defs></defs><rect x="0" y="0" width="750.8828125" height="158" fill="#0A0F32"></rect></g><g transform="translate(-9639.1171875, -9844)" id="sdjakdjak5"><defs></defs><g class="svg-topic-con" transform="translate(0.5,0.5)"><path part="right" sub="true" id="line_a9e1cf0ba9f85818" d="M 10000 9937 L 10129 9937 C 10169 9937 10169 9905.734375 10234 9905.734375 L 10234 9905.734375 L 10360.40625 9905.734375" stroke="#F4325C" fill="none" stroke-width="3"></path><path part="right" sub="true" id="line_1521d74f3110fac8" d="M 10000 9937 L 10129 9937 C 10169 9937 10169 9969.734375 10234 9969.734375 L 10234 9969.734375 L 10330.8828125 9969.734375" stroke="#13A3ED" fill="none" stroke-width="3"></path><path part="left" sub="true" id="line_f4b93517266cb079" d="M 10000 9937 L 9871 9937 C 9831 9937 9831 9905.734375 9765 9905.734375 L 9765 9905.734375 L 9668.1171875 9905.734375" stroke="#13A3ED" fill="none" stroke-width="3"></path><path part="left" sub="true" id="line_601677ebcc4c0c2b" d="M 10000 9937 L 9871 9937 C 9831 9937 9831 9969.734375 9765 9969.734375 L 9765 9969.734375 L 9677.953125 9969.734375" stroke="#7754F6" fill="none" stroke-width="3"></path></g><g class="svg-connection-con" transform="translate(0.5,0.5)"></g><g class="svg-freesums-con" transform="translate(0.5,0.5)"></g><g class="svg-freebos-con" transform="translate(0.5,0.5)"></g></g><g id="1521d74f3110fac8"><rect x="594.8828125" y="94" rx="1px" ry="1px" width="97" height="32" style="fill: transparent; stroke:none;"></rect><g><text text-anchor="start" align="top" anchor="start" font-size="16px" font-weight="normal" fill="rgb(255, 255, 255)" style="font-size:16px;font-family:微软雅黑;color:#FFFFFF;font-style:normal;text-align:left;font-weight:normal;"><tspan x="609" y="114"><tspan>Methods</tspan></tspan></text></g></g><g id="a9e1cf0ba9f85818"><rect x="594.8828125" y="30" rx="1px" ry="1px" width="126" height="32" style="fill: transparent; stroke:none;"></rect><g><text text-anchor="start" align="top" anchor="start" font-size="16px" font-weight="normal" fill="rgb(255, 255, 255)" style="font-size:16px;font-family:微软雅黑;color:#FFFFFF;font-style:normal;text-align:left;font-weight:normal;"><tspan x="609" y="50"><tspan>Properties</tspan></tspan></text></g></g><g id="601677ebcc4c0c2b"><rect x="39.8359375" y="94" rx="1px" ry="1px" width="87" height="32" style="fill: transparent; stroke:none;"></rect><g><text text-anchor="start" align="top" anchor="start" font-size="16px" font-weight="normal" fill="rgb(255, 255, 255)" style="font-size:16px;font-family:微软雅黑;color:#FFFFFF;font-style:normal;text-align:left;font-weight:normal;"><tspan x="54" y="114"><tspan>Events</tspan></tspan></text></g></g><g id="f4b93517266cb079"><rect x="30" y="30" rx="1px" ry="1px" width="97" height="32" style="fill: transparent; stroke:none;"></rect><g><text text-anchor="start" align="top" anchor="start" font-size="16px" font-weight="normal" fill="rgb(255, 255, 255)" style="font-size:16px;font-family:微软雅黑;color:#FFFFFF;font-style:normal;text-align:left;font-weight:normal;"><tspan x="44" y="50"><tspan>Extends</tspan></tspan></text></g></g><g transform="translate(594.8828125, 94)" id="sdjakdjak0"><g id="subline_1521d74f3110fac8" transform="translate(0.5, 0.5)"></g><g transform="translate(0.5,0.5)"></g><g class="svg-summary-con" transform="translate(0.5,0.5)"></g><g class="svg-boundary-con" transform="translate(0.5,0.5)"></g></g><g transform="translate(594.8828125, 30)" id="sdjakdjak1"><g id="subline_a9e1cf0ba9f85818" transform="translate(0.5, 0.5)"></g><g transform="translate(0.5,0.5)"></g><g class="svg-summary-con" transform="translate(0.5,0.5)"></g><g class="svg-boundary-con" transform="translate(0.5,0.5)"></g></g><g transform="translate(39.8359375, 94)" id="sdjakdjak2"><g id="subline_601677ebcc4c0c2b" transform="translate(0.5, 0.5)"></g><g transform="translate(0.5,0.5)"></g><g class="svg-summary-con" transform="translate(0.5,0.5)"></g><g class="svg-boundary-con" transform="translate(0.5,0.5)"></g></g><g transform="translate(30, 30)" id="sdjakdjak3"><g id="subline_f4b93517266cb079" transform="translate(0.5, 0.5)"></g><g transform="translate(0.5,0.5)"></g><g class="svg-summary-con" transform="translate(0.5,0.5)"></g><g class="svg-boundary-con" transform="translate(0.5,0.5)"></g></g><g transform="translate(226.8828125, 60)" id="sdjakdjak4"><g id="subline_root" transform="translate(0.5, 0.5)"></g><g transform="translate(0.5,0.5)"></g><g class="svg-summary-con" transform="translate(0.5,0.5)"></g><g class="svg-boundary-con" transform="translate(0.5,0.5)"></g></g><g id="root"><rect x="226.8828125" y="60" rx="7px" ry="7px" width="268" height="66" style="fill: #ffffff; stroke:none;"></rect><g><text text-anchor="start" align="top" anchor="start" font-size="24px" font-weight="normal" fill="rgb(42, 46, 54)" style="font-size:24px;font-family:微软雅黑;color:#2A2E36;font-style:normal;text-align:left;font-weight:normal;"><tspan x="265" y="101"><tspan>HTML Document</tspan></tspan></text></g></g></svg>